<svg width="350" height="243" viewBox="0 0 350 243" fill="none" xmlns="http://www.w3.org/2000/svg">
<g clip-path="url(#clip0_483_804)">
<path d="M240.615 2.29057L26.5 242.647L30 214.5L36.5 185C36.5 172.266 48.4642 155.868 52.6226 150.275L80.3626 119.121C80.4934 118.975 80.5079 118.758 80.3978 118.595L1.45299 1.67091C1.26008 1.3852 1.46479 1 1.80952 1H45.2266C45.2813 1 45.3355 1.01038 45.3862 1.03081C60.8375 7.24629 73.2788 22.8078 77.5736 29.8226L113.399 82.7076C113.556 82.94 113.891 82.9618 114.077 82.7518L161.03 29.8226C175.485 9.51773 197.166 3.00755 206.2 2.29057H240.615Z" fill="#235784"/>
<path d="M240.631 49.5628C240.615 49.5456 240.616 49.5185 240.633 49.5021L251.368 39.2776C251.385 39.2612 251.413 39.2619 251.429 39.2793L348.644 142.544C348.669 142.571 348.65 142.616 348.613 142.617L328.934 143.09C328.921 143.09 328.91 143.085 328.901 143.076L240.631 49.5628Z" fill="#235784"/>
<rect x="214.374" y="114.57" width="25.8113" height="29.2528" fill="#FF0000"/>
<rect x="184.26" y="114.57" width="25.8113" height="29.2528" fill="#FF0000"/>
<path d="M184.26 104.245C184.26 92.366 193.89 82.7358 205.77 82.7358H210.072V111.989H184.26V104.245Z" fill="#FF0000"/>
<path d="M240.185 104.245C240.185 92.366 230.555 82.7358 218.676 82.7358H214.374V111.989H240.185V104.245Z" fill="#FF0000"/>
<path d="M123.02 201.2C119.06 201.2 115.58 200.28 112.58 198.44C109.62 196.56 107.32 194.04 105.68 190.88C104.04 187.72 103.22 184.16 103.22 180.2C103.22 176.24 104.04 172.68 105.68 169.52C107.32 166.36 109.62 163.86 112.58 162.02C115.58 160.14 119.06 159.2 123.02 159.2C127.02 159.2 130.48 160.14 133.4 162.02C136.36 163.86 138.66 166.36 140.3 169.52C141.94 172.68 142.76 176.24 142.76 180.2C142.76 184.16 141.94 187.72 140.3 190.88C138.66 194.04 136.36 196.56 133.4 198.44C130.48 200.28 127.02 201.2 123.02 201.2ZM123.02 198.5C125.46 198.5 127.52 197.8 129.2 196.4C130.92 194.96 132.22 192.88 133.1 190.16C134.02 187.4 134.48 184.08 134.48 180.2C134.48 176.28 134.02 172.96 133.1 170.24C132.22 167.52 130.92 165.46 129.2 164.06C127.52 162.62 125.46 161.9 123.02 161.9C120.62 161.9 118.56 162.62 116.84 164.06C115.16 165.46 113.86 167.52 112.94 170.24C112.06 172.96 111.62 176.28 111.62 180.2C111.62 184.08 112.06 187.4 112.94 190.16C113.86 192.88 115.16 194.96 116.84 196.4C118.56 197.8 120.62 198.5 123.02 198.5ZM177.384 201.02C175.744 201.02 174.124 200.86 172.524 200.54C170.924 200.22 169.464 199.76 168.144 199.16C166.824 198.52 165.764 197.76 164.964 196.88C164.204 195.96 163.824 194.94 163.824 193.82V186.8H165.504C166.144 190.96 167.424 193.92 169.344 195.68C171.304 197.44 173.964 198.32 177.324 198.32C178.844 198.32 180.164 198.1 181.284 197.66C182.444 197.22 183.324 196.58 183.924 195.74C184.564 194.86 184.884 193.78 184.884 192.5C184.884 190.78 184.324 189.36 183.204 188.24C182.124 187.08 180.624 185.92 178.704 184.76L171.324 180.32C168.604 178.72 166.684 177.08 165.564 175.4C164.444 173.72 163.884 171.78 163.884 169.58C163.884 166.42 165.084 163.92 167.484 162.08C169.924 160.24 173.204 159.32 177.324 159.32C178.964 159.32 180.584 159.48 182.184 159.8C183.784 160.12 185.244 160.6 186.564 161.24C187.884 161.84 188.924 162.58 189.684 163.46C190.484 164.34 190.884 165.36 190.884 166.52V173.54H189.204C188.524 169.38 187.244 166.42 185.364 164.66C183.484 162.9 181.024 162.02 177.984 162.02C176.544 162.02 175.284 162.26 174.204 162.74C173.164 163.22 172.364 163.9 171.804 164.78C171.244 165.62 170.964 166.64 170.964 167.84C170.964 169.52 171.524 170.88 172.644 171.92C173.804 172.96 175.324 174.04 177.204 175.16L184.584 179.54C187.304 181.14 189.284 182.72 190.524 184.28C191.804 185.8 192.444 187.66 192.444 189.86C192.444 193.3 191.144 196.02 188.544 198.02C185.944 200.02 182.224 201.02 177.384 201.02ZM224.557 200V163.1H220.297C218.177 163.1 216.497 163.64 215.257 164.72C214.017 165.76 213.397 167.62 213.397 170.3H211.597V165.2C211.597 164.4 211.737 163.64 212.017 162.92C212.297 162.16 212.797 161.56 213.517 161.12C214.277 160.64 215.337 160.4 216.697 160.4H244.897V163.1H232.357V200H224.557ZM266.848 200V168.2C266.848 166.4 266.588 164.96 266.068 163.88C265.588 162.76 264.448 162.2 262.648 162.2H262.048V160.4H288.508C289.908 160.4 290.968 160.64 291.688 161.12C292.408 161.56 292.908 162.16 293.188 162.92C293.468 163.64 293.608 164.4 293.608 165.2V170.3H291.808C291.808 167.74 291.148 165.9 289.828 164.78C288.548 163.66 286.708 163.1 284.308 163.1H274.648V178.1H290.248V180.8H274.648V197.3H284.908C287.108 197.3 288.968 196.82 290.488 195.86C292.048 194.86 293.348 193.06 294.388 190.46L296.008 191.06L294.268 195.8C293.828 197.08 293.248 198.1 292.528 198.86C291.848 199.62 290.688 200 289.048 200H266.848ZM318.825 200V168.2C318.825 166.4 318.565 164.96 318.045 163.88C317.565 162.76 316.425 162.2 314.625 162.2H314.025V160.4H321.225C322.625 160.4 323.705 160.64 324.465 161.12C325.265 161.6 325.825 162.4 326.145 163.52C326.465 164.64 326.625 166.2 326.625 168.2V197.3H347.325V200H318.825Z" fill="#202224"/>
<path d="M72.16 215.768C72.6613 215.768 73.0933 215.784 73.456 215.816C73.8187 215.837 74.1493 215.875 74.448 215.928C74.7467 215.971 75.0507 216.04 75.36 216.136L75.072 217.608C74.7413 217.587 74.432 217.571 74.144 217.56C73.856 217.539 73.552 217.523 73.232 217.512C72.912 217.501 72.5333 217.496 72.096 217.496C71.6267 217.496 71.2267 217.555 70.896 217.672C70.5653 217.789 70.2827 217.997 70.048 218.296C69.8133 218.584 69.616 218.995 69.456 219.528C69.296 220.051 69.1627 220.723 69.056 221.544C68.9173 222.557 68.8747 223.347 68.928 223.912C68.9813 224.477 69.1627 224.877 69.472 225.112C69.7813 225.336 70.24 225.453 70.848 225.464C71.5733 225.464 72.176 225.448 72.656 225.416C73.1467 225.384 73.632 225.347 74.112 225.304L74.192 226.792C73.6907 226.941 73.1787 227.043 72.656 227.096C72.144 227.16 71.52 227.192 70.784 227.192C69.6747 227.192 68.8053 227 68.176 226.616C67.5573 226.221 67.152 225.597 66.96 224.744C66.768 223.891 66.768 222.781 66.96 221.416C67.1093 220.349 67.312 219.453 67.568 218.728C67.824 218.003 68.1493 217.427 68.544 217C68.9493 216.563 69.4453 216.248 70.032 216.056C70.6293 215.864 71.3387 215.768 72.16 215.768ZM81.1643 218.952C82.0923 218.952 82.8336 219.091 83.3883 219.368C83.9429 219.645 84.3163 220.093 84.5083 220.712C84.7109 221.32 84.7376 222.136 84.5883 223.16C84.4496 224.152 84.2149 224.947 83.8843 225.544C83.5536 226.131 83.0949 226.557 82.5083 226.824C81.9216 227.08 81.1643 227.208 80.2363 227.208C79.3083 227.208 78.5669 227.069 78.0123 226.792C77.4576 226.515 77.0736 226.072 76.8603 225.464C76.6576 224.845 76.6309 224.029 76.7803 223.016C76.9189 222.024 77.1483 221.229 77.4683 220.632C77.7989 220.035 78.2629 219.608 78.8603 219.352C79.4576 219.085 80.2256 218.952 81.1643 218.952ZM81.1483 220.424C80.6469 220.424 80.2416 220.499 79.9323 220.648C79.6336 220.797 79.3936 221.069 79.2123 221.464C79.0416 221.859 78.9029 222.424 78.7963 223.16C78.7109 223.832 78.6896 224.355 78.7323 224.728C78.7856 225.101 78.9349 225.363 79.1803 225.512C79.4256 225.651 79.7883 225.72 80.2682 225.72C80.7589 225.72 81.1536 225.645 81.4523 225.496C81.7616 225.336 82.0016 225.059 82.1723 224.664C82.3536 224.259 82.4923 223.709 82.5883 223.016C82.6843 222.323 82.7056 221.795 82.6523 221.432C82.5989 221.059 82.4496 220.797 82.2043 220.648C81.9696 220.499 81.6176 220.424 81.1483 220.424ZM89.4299 219.144L89.3979 221.048L89.5579 221.272L88.7739 227H86.8379L87.9419 219.144H89.4299ZM92.6619 218.952C93.3659 218.952 93.8832 219.149 94.2139 219.544C94.5445 219.928 94.6565 220.461 94.5499 221.144L93.7339 227H91.8779L92.6139 221.656C92.6672 221.272 92.6352 221 92.5179 220.84C92.4112 220.669 92.1925 220.584 91.8619 220.584C91.6272 220.584 91.3872 220.637 91.1419 220.744C90.9072 220.84 90.6405 221 90.3419 221.224C90.0432 221.437 89.6805 221.736 89.2539 222.12L89.0779 221.016C89.7392 220.301 90.3525 219.779 90.9179 219.448C91.4832 219.117 92.0645 218.952 92.6619 218.952ZM97.6699 218.952C98.3845 218.952 98.9072 219.149 99.2379 219.544C99.5685 219.939 99.6805 220.472 99.5739 221.144L98.7579 227H96.8379L97.5899 221.656C97.6432 221.24 97.6005 220.957 97.4619 220.808C97.3339 220.659 97.1205 220.584 96.8219 220.584C96.6085 220.584 96.3845 220.632 96.1499 220.728C95.9259 220.824 95.6645 220.984 95.3659 221.208C95.0672 221.421 94.7099 221.72 94.2939 222.104L94.1179 221.016C94.7792 220.291 95.3872 219.768 95.9419 219.448C96.4965 219.117 97.0725 218.952 97.6699 218.952ZM106.462 215.496C106.654 215.496 106.899 215.501 107.198 215.512C107.497 215.523 107.795 215.539 108.094 215.56C108.403 215.581 108.665 215.608 108.878 215.64L108.59 216.936H107.102C106.643 216.936 106.307 217.021 106.094 217.192C105.891 217.352 105.747 217.672 105.662 218.152L104.286 227.832C104.19 228.557 103.934 229.128 103.518 229.544C103.102 229.96 102.478 230.168 101.646 230.168C101.39 230.168 101.097 230.157 100.766 230.136C100.425 230.115 100.041 230.077 99.6139 230.024L99.9179 228.712H101.006C101.465 228.712 101.795 228.627 101.998 228.456C102.211 228.296 102.35 227.981 102.414 227.512L103.774 217.832C103.891 217.096 104.158 216.525 104.574 216.12C105.001 215.704 105.63 215.496 106.462 215.496ZM107.838 219.144L107.646 220.488H102.03L102.19 219.224L103.646 219.144H107.838ZM113.633 218.952C114.561 218.952 115.302 219.091 115.857 219.368C116.412 219.645 116.785 220.093 116.977 220.712C117.18 221.32 117.206 222.136 117.057 223.16C116.918 224.152 116.684 224.947 116.353 225.544C116.022 226.131 115.564 226.557 114.977 226.824C114.39 227.08 113.633 227.208 112.705 227.208C111.777 227.208 111.036 227.069 110.481 226.792C109.926 226.515 109.542 226.072 109.329 225.464C109.126 224.845 109.1 224.029 109.249 223.016C109.388 222.024 109.617 221.229 109.937 220.632C110.268 220.035 110.732 219.608 111.329 219.352C111.926 219.085 112.694 218.952 113.633 218.952ZM113.617 220.424C113.116 220.424 112.71 220.499 112.401 220.648C112.102 220.797 111.862 221.069 111.681 221.464C111.51 221.859 111.372 222.424 111.265 223.16C111.18 223.832 111.158 224.355 111.201 224.728C111.254 225.101 111.404 225.363 111.649 225.512C111.894 225.651 112.257 225.72 112.737 225.72C113.228 225.72 113.622 225.645 113.921 225.496C114.23 225.336 114.47 225.059 114.641 224.664C114.822 224.259 114.961 223.709 115.057 223.016C115.153 222.323 115.174 221.795 115.121 221.432C115.068 221.059 114.918 220.797 114.673 220.648C114.438 220.499 114.086 220.424 113.617 220.424ZM121.915 219.144L121.867 221.144L122.027 221.368L121.243 227H119.307L120.411 219.144H121.915ZM125.787 218.952L125.339 220.744H124.843C124.427 220.744 123.984 220.856 123.515 221.08C123.056 221.304 122.485 221.629 121.803 222.056L121.707 220.888C122.357 220.259 122.987 219.779 123.595 219.448C124.213 219.117 124.789 218.952 125.323 218.952H125.787ZM130.948 216.904L129.844 224.68C129.801 225 129.833 225.224 129.94 225.352C130.046 225.48 130.265 225.544 130.596 225.544H131.732L131.828 226.904C131.636 226.968 131.406 227.016 131.14 227.048C130.884 227.091 130.633 227.117 130.388 227.128C130.153 227.149 129.961 227.16 129.812 227.16C129.097 227.16 128.569 226.968 128.228 226.584C127.886 226.2 127.764 225.667 127.86 224.984L129.028 216.904H130.948ZM132.948 219.144L132.756 220.488H127.108L127.268 219.224L128.804 219.144H132.948ZM142.152 214.504L140.008 229.704H138.616L140.76 214.504H142.152ZM152.147 215.928C152.979 215.928 153.816 215.939 154.659 215.96C155.512 215.971 156.296 216.008 157.011 216.072L156.755 217.544H152.771C152.397 217.544 152.125 217.613 151.955 217.752C151.784 217.891 151.672 218.141 151.619 218.504L150.435 227H148.419L149.667 218.024C149.773 217.363 150.04 216.851 150.467 216.488C150.904 216.115 151.464 215.928 152.147 215.928ZM149.587 220.696H155.715L155.507 222.12L149.363 222.136L149.587 220.696ZM160.446 219.144L160.398 221.144L160.558 221.368L159.774 227H157.838L158.942 219.144H160.446ZM164.318 218.952L163.87 220.744H163.374C162.958 220.744 162.515 220.856 162.046 221.08C161.587 221.304 161.017 221.629 160.334 222.056L160.238 220.888C160.889 220.259 161.518 219.779 162.126 219.448C162.745 219.117 163.321 218.952 163.854 218.952H164.318ZM170.025 218.952C170.932 218.952 171.63 219.053 172.121 219.256C172.622 219.448 172.958 219.741 173.129 220.136C173.3 220.52 173.337 221 173.241 221.576C173.156 222.077 172.99 222.472 172.745 222.76C172.51 223.048 172.18 223.267 171.753 223.416C171.337 223.555 170.804 223.651 170.153 223.704L166.217 224.04L166.393 222.856L169.881 222.52C170.201 222.488 170.457 222.44 170.649 222.376C170.852 222.301 171.006 222.189 171.113 222.04C171.23 221.891 171.31 221.677 171.353 221.4C171.406 221.091 171.385 220.861 171.289 220.712C171.193 220.563 171.033 220.472 170.809 220.44C170.585 220.397 170.286 220.376 169.913 220.376C169.55 220.376 169.241 220.413 168.985 220.488C168.729 220.552 168.516 220.675 168.345 220.856C168.174 221.037 168.03 221.293 167.913 221.624C167.806 221.944 167.71 222.371 167.625 222.904C167.508 223.672 167.492 224.253 167.577 224.648C167.673 225.032 167.865 225.293 168.153 225.432C168.441 225.56 168.836 225.624 169.337 225.624C169.604 225.624 169.913 225.619 170.265 225.608C170.617 225.587 170.969 225.565 171.321 225.544C171.684 225.512 172.014 225.48 172.313 225.448L172.441 226.68C172.153 226.808 171.806 226.909 171.401 226.984C171.006 227.059 170.606 227.112 170.201 227.144C169.806 227.176 169.433 227.192 169.081 227.192C168.1 227.192 167.332 227.037 166.777 226.728C166.233 226.419 165.87 225.949 165.689 225.32C165.508 224.68 165.476 223.88 165.593 222.92C165.7 222.131 165.86 221.48 166.073 220.968C166.297 220.445 166.585 220.04 166.937 219.752C167.289 219.453 167.721 219.245 168.233 219.128C168.745 219.011 169.342 218.952 170.025 218.952ZM179.853 218.952C180.76 218.952 181.459 219.053 181.949 219.256C182.451 219.448 182.787 219.741 182.957 220.136C183.128 220.52 183.165 221 183.069 221.576C182.984 222.077 182.819 222.472 182.573 222.76C182.339 223.048 182.008 223.267 181.581 223.416C181.165 223.555 180.632 223.651 179.981 223.704L176.045 224.04L176.221 222.856L179.709 222.52C180.029 222.488 180.285 222.44 180.477 222.376C180.68 222.301 180.835 222.189 180.941 222.04C181.059 221.891 181.139 221.677 181.181 221.4C181.235 221.091 181.213 220.861 181.117 220.712C181.021 220.563 180.861 220.472 180.637 220.44C180.413 220.397 180.115 220.376 179.741 220.376C179.379 220.376 179.069 220.413 178.813 220.488C178.557 220.552 178.344 220.675 178.173 220.856C178.003 221.037 177.859 221.293 177.741 221.624C177.635 221.944 177.539 222.371 177.453 222.904C177.336 223.672 177.32 224.253 177.405 224.648C177.501 225.032 177.693 225.293 177.981 225.432C178.269 225.56 178.664 225.624 179.165 225.624C179.432 225.624 179.741 225.619 180.093 225.608C180.445 225.587 180.797 225.565 181.149 225.544C181.512 225.512 181.843 225.48 182.141 225.448L182.269 226.68C181.981 226.808 181.635 226.909 181.229 226.984C180.835 227.059 180.435 227.112 180.029 227.144C179.635 227.176 179.261 227.192 178.909 227.192C177.928 227.192 177.16 227.037 176.605 226.728C176.061 226.419 175.699 225.949 175.517 225.32C175.336 224.68 175.304 223.88 175.421 222.92C175.528 222.131 175.688 221.48 175.901 220.968C176.125 220.445 176.413 220.04 176.765 219.752C177.117 219.453 177.549 219.245 178.061 219.128C178.573 219.011 179.171 218.952 179.853 218.952ZM188.945 218.952C189.596 218.952 190.257 218.995 190.929 219.08C191.612 219.165 192.188 219.283 192.657 219.432L192.321 220.376C191.788 220.365 191.308 220.355 190.881 220.344C190.465 220.333 190.081 220.328 189.729 220.328C189.292 220.328 188.929 220.36 188.641 220.424C188.353 220.488 188.124 220.611 187.953 220.792C187.783 220.973 187.644 221.24 187.537 221.592C187.431 221.944 187.335 222.413 187.249 223C187.164 223.64 187.121 224.147 187.121 224.52C187.132 224.893 187.207 225.16 187.345 225.32C187.484 225.469 187.708 225.544 188.017 225.544C188.519 225.544 189.004 225.395 189.473 225.096C189.943 224.787 190.476 224.349 191.073 223.784L191.441 224.648C191.26 224.883 191.031 225.149 190.753 225.448C190.487 225.736 190.172 226.013 189.809 226.28C189.457 226.547 189.073 226.765 188.657 226.936C188.241 227.107 187.799 227.192 187.329 227.192C186.764 227.192 186.305 227.053 185.953 226.776C185.612 226.499 185.383 226.045 185.265 225.416C185.148 224.787 185.153 223.965 185.281 222.952C185.409 222.099 185.58 221.411 185.793 220.888C186.007 220.355 186.263 219.949 186.561 219.672C186.871 219.395 187.223 219.208 187.617 219.112C188.012 219.005 188.455 218.952 188.945 218.952ZM193.825 215.8L192.241 227H190.721L190.769 225.128L190.593 225L191.329 219.512L191.473 219.256C191.473 218.979 191.484 218.712 191.505 218.456C191.527 218.189 191.559 217.907 191.601 217.608L191.873 215.8H193.825ZM199.977 218.952C200.905 218.952 201.646 219.091 202.201 219.368C202.755 219.645 203.129 220.093 203.321 220.712C203.523 221.32 203.55 222.136 203.401 223.16C203.262 224.152 203.027 224.947 202.697 225.544C202.366 226.131 201.907 226.557 201.321 226.824C200.734 227.08 199.977 227.208 199.049 227.208C198.121 227.208 197.379 227.069 196.825 226.792C196.27 226.515 195.886 226.072 195.673 225.464C195.47 224.845 195.443 224.029 195.593 223.016C195.731 222.024 195.961 221.229 196.281 220.632C196.611 220.035 197.075 219.608 197.673 219.352C198.27 219.085 199.038 218.952 199.977 218.952ZM199.961 220.424C199.459 220.424 199.054 220.499 198.745 220.648C198.446 220.797 198.206 221.069 198.025 221.464C197.854 221.859 197.715 222.424 197.609 223.16C197.523 223.832 197.502 224.355 197.545 224.728C197.598 225.101 197.747 225.363 197.993 225.512C198.238 225.651 198.601 225.72 199.081 225.72C199.571 225.72 199.966 225.645 200.265 225.496C200.574 225.336 200.814 225.059 200.985 224.664C201.166 224.259 201.305 223.709 201.401 223.016C201.497 222.323 201.518 221.795 201.465 221.432C201.411 221.059 201.262 220.797 201.017 220.648C200.782 220.499 200.43 220.424 199.961 220.424ZM208.242 219.144L208.21 221.048L208.37 221.272L207.586 227H205.65L206.754 219.144H208.242ZM211.474 218.952C212.178 218.952 212.696 219.149 213.026 219.544C213.357 219.928 213.469 220.461 213.362 221.144L212.546 227H210.69L211.426 221.656C211.48 221.272 211.448 221 211.33 220.84C211.224 220.669 211.005 220.584 210.674 220.584C210.44 220.584 210.2 220.637 209.954 220.744C209.72 220.84 209.453 221 209.154 221.224C208.856 221.437 208.493 221.736 208.066 222.12L207.89 221.016C208.552 220.301 209.165 219.779 209.73 219.448C210.296 219.117 210.877 218.952 211.474 218.952ZM216.482 218.952C217.197 218.952 217.72 219.149 218.05 219.544C218.381 219.939 218.493 220.472 218.386 221.144L217.57 227H215.65L216.402 221.656C216.456 221.24 216.413 220.957 216.274 220.808C216.146 220.659 215.933 220.584 215.634 220.584C215.421 220.584 215.197 220.632 214.962 220.728C214.738 220.824 214.477 220.984 214.178 221.208C213.88 221.421 213.522 221.72 213.106 222.104L212.93 221.016C213.592 220.291 214.2 219.768 214.754 219.448C215.309 219.117 215.885 218.952 216.482 218.952ZM228.558 214.504L226.414 229.704H225.022L227.166 214.504H228.558ZM240.457 215.768C240.958 215.768 241.39 215.784 241.753 215.816C242.116 215.837 242.446 215.875 242.745 215.928C243.044 215.971 243.348 216.04 243.657 216.136L243.369 217.608C243.038 217.587 242.729 217.571 242.441 217.56C242.153 217.539 241.849 217.523 241.529 217.512C241.209 217.501 240.83 217.496 240.393 217.496C239.924 217.496 239.524 217.555 239.193 217.672C238.862 217.789 238.58 217.997 238.345 218.296C238.11 218.584 237.913 218.995 237.753 219.528C237.593 220.051 237.46 220.723 237.353 221.544C237.214 222.557 237.172 223.347 237.225 223.912C237.278 224.477 237.46 224.877 237.769 225.112C238.078 225.336 238.537 225.453 239.145 225.464C239.87 225.464 240.473 225.448 240.953 225.416C241.444 225.384 241.929 225.347 242.409 225.304L242.489 226.792C241.988 226.941 241.476 227.043 240.953 227.096C240.441 227.16 239.817 227.192 239.081 227.192C237.972 227.192 237.102 227 236.473 226.616C235.854 226.221 235.449 225.597 235.257 224.744C235.065 223.891 235.065 222.781 235.257 221.416C235.406 220.349 235.609 219.453 235.865 218.728C236.121 218.003 236.446 217.427 236.841 217C237.246 216.563 237.742 216.248 238.329 216.056C238.926 215.864 239.636 215.768 240.457 215.768ZM249.461 218.952C250.389 218.952 251.13 219.091 251.685 219.368C252.24 219.645 252.613 220.093 252.805 220.712C253.008 221.32 253.034 222.136 252.885 223.16C252.746 224.152 252.512 224.947 252.181 225.544C251.85 226.131 251.392 226.557 250.805 226.824C250.218 227.08 249.461 227.208 248.533 227.208C247.605 227.208 246.864 227.069 246.309 226.792C245.754 226.515 245.37 226.072 245.157 225.464C244.954 224.845 244.928 224.029 245.077 223.016C245.216 222.024 245.445 221.229 245.765 220.632C246.096 220.035 246.56 219.608 247.157 219.352C247.754 219.085 248.522 218.952 249.461 218.952ZM249.445 220.424C248.944 220.424 248.538 220.499 248.229 220.648C247.93 220.797 247.69 221.069 247.509 221.464C247.338 221.859 247.2 222.424 247.093 223.16C247.008 223.832 246.986 224.355 247.029 224.728C247.082 225.101 247.232 225.363 247.477 225.512C247.722 225.651 248.085 225.72 248.565 225.72C249.056 225.72 249.45 225.645 249.749 225.496C250.058 225.336 250.298 225.059 250.469 224.664C250.65 224.259 250.789 223.709 250.885 223.016C250.981 222.323 251.002 221.795 250.949 221.432C250.896 221.059 250.746 220.797 250.501 220.648C250.266 220.499 249.914 220.424 249.445 220.424ZM258.655 215.8L257.407 224.68C257.353 224.989 257.385 225.213 257.503 225.352C257.631 225.48 257.865 225.544 258.207 225.544H258.959L259.039 226.92C258.921 226.973 258.756 227.016 258.543 227.048C258.329 227.091 258.116 227.117 257.903 227.128C257.689 227.149 257.513 227.16 257.375 227.16C256.692 227.16 256.175 226.979 255.823 226.616C255.471 226.243 255.337 225.725 255.423 225.064L256.719 215.8H258.655ZM264.639 215.8L263.391 224.68C263.338 224.989 263.37 225.213 263.487 225.352C263.615 225.48 263.85 225.544 264.191 225.544H264.943L265.023 226.92C264.906 226.973 264.74 227.016 264.527 227.048C264.314 227.091 264.1 227.117 263.887 227.128C263.674 227.149 263.498 227.16 263.359 227.16C262.676 227.16 262.159 226.979 261.807 226.616C261.455 226.243 261.322 225.725 261.407 225.064L262.703 215.8H264.639ZM271.664 218.952C271.941 218.952 272.245 218.963 272.576 218.984C272.917 219.005 273.258 219.037 273.6 219.08C273.941 219.112 274.266 219.155 274.576 219.208C274.896 219.251 275.168 219.299 275.392 219.352L274.208 220.456C273.717 220.435 273.269 220.419 272.864 220.408C272.469 220.397 272.128 220.392 271.84 220.392C271.413 220.392 271.056 220.424 270.768 220.488C270.49 220.541 270.261 220.659 270.08 220.84C269.898 221.011 269.749 221.272 269.632 221.624C269.525 221.965 269.429 222.424 269.344 223C269.248 223.715 269.2 224.259 269.2 224.632C269.2 225.005 269.274 225.261 269.424 225.4C269.573 225.539 269.802 225.608 270.112 225.608C270.442 225.597 270.778 225.507 271.12 225.336C271.461 225.165 271.808 224.92 272.16 224.6C272.512 224.28 272.864 223.907 273.216 223.48L273.568 224.2C273.333 224.765 273.013 225.272 272.608 225.72C272.202 226.168 271.738 226.525 271.216 226.792C270.693 227.048 270.122 227.181 269.504 227.192C268.842 227.203 268.33 227.069 267.968 226.792C267.616 226.504 267.392 226.045 267.296 225.416C267.21 224.776 267.237 223.955 267.376 222.952C267.514 222.056 267.701 221.341 267.936 220.808C268.17 220.264 268.464 219.864 268.816 219.608C269.168 219.341 269.578 219.165 270.048 219.08C270.528 218.995 271.066 218.952 271.664 218.952ZM273.472 219.272L275.392 219.352L274.32 227H272.816L272.88 225.192L272.656 225.016L273.472 219.272ZM283.399 218.952C284.018 218.952 284.508 219.08 284.871 219.336C285.234 219.592 285.468 220.029 285.575 220.648C285.692 221.256 285.676 222.088 285.527 223.144C285.41 223.923 285.25 224.573 285.047 225.096C284.844 225.619 284.583 226.035 284.263 226.344C283.954 226.653 283.57 226.872 283.111 227C282.663 227.139 282.13 227.208 281.511 227.208C281.212 227.208 280.882 227.192 280.519 227.16C280.167 227.139 279.804 227.101 279.431 227.048C279.068 226.995 278.722 226.931 278.391 226.856C278.06 226.781 277.762 226.696 277.495 226.6L278.759 225.592C279.058 225.624 279.356 225.651 279.655 225.672C279.964 225.693 280.247 225.715 280.503 225.736C280.759 225.747 280.962 225.747 281.111 225.736C281.548 225.736 281.906 225.704 282.183 225.64C282.46 225.565 282.684 225.432 282.855 225.24C283.026 225.048 283.164 224.771 283.271 224.408C283.378 224.045 283.468 223.581 283.543 223.016C283.65 222.333 283.692 221.816 283.671 221.464C283.65 221.101 283.564 220.856 283.415 220.728C283.266 220.6 283.042 220.536 282.743 220.536C282.348 220.536 281.89 220.691 281.367 221C280.855 221.299 280.3 221.72 279.703 222.264L279.383 221.512C279.596 221.213 279.852 220.915 280.151 220.616C280.45 220.307 280.775 220.029 281.127 219.784C281.49 219.528 281.863 219.325 282.247 219.176C282.631 219.027 283.015 218.952 283.399 218.952ZM280.935 215.8L280.567 218.664C280.514 219.037 280.45 219.389 280.375 219.72C280.3 220.04 280.199 220.376 280.071 220.728L280.247 220.904L279.415 226.696L277.495 226.6L279.015 215.8H280.935ZM292.414 218.952C293.342 218.952 294.084 219.091 294.638 219.368C295.193 219.645 295.566 220.093 295.758 220.712C295.961 221.32 295.988 222.136 295.838 223.16C295.7 224.152 295.465 224.947 295.134 225.544C294.804 226.131 294.345 226.557 293.758 226.824C293.172 227.08 292.414 227.208 291.486 227.208C290.558 227.208 289.817 227.069 289.262 226.792C288.708 226.515 288.324 226.072 288.11 225.464C287.908 224.845 287.881 224.029 288.03 223.016C288.169 222.024 288.398 221.229 288.718 220.632C289.049 220.035 289.513 219.608 290.11 219.352C290.708 219.085 291.476 218.952 292.414 218.952ZM292.398 220.424C291.897 220.424 291.492 220.499 291.182 220.648C290.884 220.797 290.644 221.069 290.462 221.464C290.292 221.859 290.153 222.424 290.046 223.16C289.961 223.832 289.94 224.355 289.982 224.728C290.036 225.101 290.185 225.363 290.43 225.512C290.676 225.651 291.038 225.72 291.518 225.72C292.009 225.72 292.404 225.645 292.702 225.496C293.012 225.336 293.252 225.059 293.422 224.664C293.604 224.259 293.742 223.709 293.838 223.016C293.934 222.323 293.956 221.795 293.902 221.432C293.849 221.059 293.7 220.797 293.454 220.648C293.22 220.499 292.868 220.424 292.398 220.424ZM300.696 219.144L300.648 221.144L300.808 221.368L300.024 227H298.088L299.192 219.144H300.696ZM304.568 218.952L304.12 220.744H303.624C303.208 220.744 302.765 220.856 302.296 221.08C301.837 221.304 301.267 221.629 300.584 222.056L300.488 220.888C301.139 220.259 301.768 219.779 302.376 219.448C302.995 219.117 303.571 218.952 304.104 218.952H304.568ZM310.148 218.952C310.425 218.952 310.729 218.963 311.06 218.984C311.401 219.005 311.743 219.037 312.084 219.08C312.425 219.112 312.751 219.155 313.06 219.208C313.38 219.251 313.652 219.299 313.876 219.352L312.692 220.456C312.201 220.435 311.753 220.419 311.348 220.408C310.953 220.397 310.612 220.392 310.324 220.392C309.897 220.392 309.54 220.424 309.252 220.488C308.975 220.541 308.745 220.659 308.564 220.84C308.383 221.011 308.233 221.272 308.116 221.624C308.009 221.965 307.913 222.424 307.828 223C307.732 223.715 307.684 224.259 307.684 224.632C307.684 225.005 307.759 225.261 307.908 225.4C308.057 225.539 308.287 225.608 308.596 225.608C308.927 225.597 309.263 225.507 309.604 225.336C309.945 225.165 310.292 224.92 310.644 224.6C310.996 224.28 311.348 223.907 311.7 223.48L312.052 224.2C311.817 224.765 311.497 225.272 311.092 225.72C310.687 226.168 310.223 226.525 309.7 226.792C309.177 227.048 308.607 227.181 307.988 227.192C307.327 227.203 306.815 227.069 306.452 226.792C306.1 226.504 305.876 226.045 305.78 225.416C305.695 224.776 305.721 223.955 305.86 222.952C305.999 222.056 306.185 221.341 306.42 220.808C306.655 220.264 306.948 219.864 307.3 219.608C307.652 219.341 308.063 219.165 308.532 219.08C309.012 218.995 309.551 218.952 310.148 218.952ZM311.956 219.272L313.876 219.352L312.804 227H311.3L311.364 225.192L311.14 225.016L311.956 219.272ZM319.963 216.904L318.859 224.68C318.817 225 318.849 225.224 318.955 225.352C319.062 225.48 319.281 225.544 319.611 225.544H320.747L320.843 226.904C320.651 226.968 320.422 227.016 320.155 227.048C319.899 227.091 319.649 227.117 319.403 227.128C319.169 227.149 318.977 227.16 318.827 227.16C318.113 227.16 317.585 226.968 317.243 226.584C316.902 226.2 316.779 225.667 316.875 224.984L318.043 216.904H319.963ZM321.963 219.144L321.771 220.488H316.123L316.283 219.224L317.819 219.144H321.963ZM326.348 219.144L325.26 227H323.324L324.428 219.144H326.348ZM326.236 215.736C326.449 215.736 326.598 215.795 326.684 215.912C326.78 216.019 326.817 216.168 326.796 216.36L326.684 217.24C326.63 217.603 326.417 217.784 326.044 217.784H325.212C324.796 217.784 324.614 217.576 324.668 217.16L324.78 216.28C324.822 215.917 325.03 215.736 325.404 215.736H326.236ZM333.055 218.952C333.983 218.952 334.724 219.091 335.279 219.368C335.834 219.645 336.207 220.093 336.399 220.712C336.602 221.32 336.628 222.136 336.479 223.16C336.34 224.152 336.106 224.947 335.775 225.544C335.444 226.131 334.986 226.557 334.399 226.824C333.812 227.08 333.055 227.208 332.127 227.208C331.199 227.208 330.458 227.069 329.903 226.792C329.348 226.515 328.964 226.072 328.751 225.464C328.548 224.845 328.522 224.029 328.671 223.016C328.81 222.024 329.039 221.229 329.359 220.632C329.69 220.035 330.154 219.608 330.751 219.352C331.348 219.085 332.116 218.952 333.055 218.952ZM333.039 220.424C332.538 220.424 332.132 220.499 331.823 220.648C331.524 220.797 331.284 221.069 331.103 221.464C330.932 221.859 330.794 222.424 330.687 223.16C330.602 223.832 330.58 224.355 330.623 224.728C330.676 225.101 330.826 225.363 331.071 225.512C331.316 225.651 331.679 225.72 332.159 225.72C332.65 225.72 333.044 225.645 333.343 225.496C333.652 225.336 333.892 225.059 334.063 224.664C334.244 224.259 334.383 223.709 334.479 223.016C334.575 222.323 334.596 221.795 334.543 221.432C334.49 221.059 334.34 220.797 334.095 220.648C333.86 220.499 333.508 220.424 333.039 220.424ZM344.985 218.952C345.422 218.952 345.795 219.032 346.105 219.192C346.414 219.352 346.638 219.597 346.777 219.928C346.926 220.248 346.969 220.653 346.905 221.144L346.073 227H344.121L344.889 221.704C344.942 221.277 344.915 220.984 344.809 220.824C344.702 220.653 344.483 220.573 344.153 220.584C343.737 220.584 343.299 220.717 342.841 220.984C342.393 221.24 341.854 221.619 341.225 222.12L341.065 221.016C341.747 220.344 342.414 219.832 343.065 219.48C343.715 219.128 344.355 218.952 344.985 218.952ZM341.353 219.144L341.305 221.208L341.433 221.432L340.664 227H338.729L339.833 219.144H341.353Z" fill="#235784"/>
</g>
<defs>
<clipPath id="clip0_483_804">
<rect width="350" height="243" fill="white"/>
</clipPath>
</defs>
</svg>
